<svg width="27" height="28" viewBox="0 0 27 28" fill="none" xmlns="http://www.w3.org/2000/svg">
<path d="M13.2 3C16.5 5.2 17.515 9.92124 17.6 14C17.515 18.0788 16.5 22.8 13.2 25M13.2 3C9.89995 5.2 8.88492 9.92124 8.79995 14C8.88493 18.0788 9.89996 22.8 13.2 25M13.2 3C7.12482 3 2.19995 7.92487 2.19995 14M13.2 3C19.2751 3 24.2 7.92487 24.2 14M13.2 25C19.2751 25 24.2 20.0751 24.2 14M13.2 25C7.12482 25 2.19995 20.0751 2.19995 14M24.2 14C22 17.3 17.2787 18.315 13.2 18.4C9.12119 18.315 4.39995 17.3 2.19995 14M24.2 14C22 10.7 17.2787 9.68497 13.2 9.6C9.12119 9.68497 4.39995 10.7 2.19995 14" stroke="#1570EF" stroke-width="2.2" stroke-linecap="round" stroke-linejoin="round"/>
</svg>
