<svg width="15" height="20" viewBox="0 0 15 20" fill="none" xmlns="http://www.w3.org/2000/svg">
<path fill-rule="evenodd" clip-rule="evenodd" d="M2 0C0.895431 0 0 0.895431 0 2V18C0 19.1046 0.89543 20 2 20H13C14.1046 20 15 19.1046 15 18V5H10V0H2Z" fill="#E5252A"/>
<path d="M15 5L10 0V5H15Z" fill="#ED676A"/>
<path d="M4.3007 12.4498C4.68936 12.4498 5.0157 12.5763 5.2797 12.8293C5.5437 13.0823 5.6757 13.405 5.6757 13.7973C5.6757 14.1896 5.5437 14.5123 5.2797 14.7653C5.0157 15.0183 4.68936 15.1448 4.3007 15.1448H3.7892V16.2998H2.8047V12.4498H4.3007ZM4.3007 14.2098C4.4107 14.2098 4.50236 14.1713 4.5757 14.0943C4.6527 14.0173 4.6912 13.9183 4.6912 13.7973C4.6912 13.6763 4.6527 13.5791 4.5757 13.5058C4.50236 13.4288 4.4107 13.3903 4.3007 13.3903H3.7892V14.2098H4.3007ZM7.62708 12.4498C8.15875 12.4498 8.60241 12.635 8.95808 13.0053C9.31741 13.372 9.49708 13.8285 9.49708 14.3748C9.49708 14.9211 9.31741 15.3795 8.95808 15.7498C8.60241 16.1165 8.15875 16.2998 7.62708 16.2998H6.05958V12.4498H7.62708ZM7.62708 15.3483C7.89475 15.3483 8.11291 15.2603 8.28158 15.0843C8.45025 14.9046 8.53458 14.6681 8.53458 14.3748C8.53458 14.0815 8.45025 13.8468 8.28158 13.6708C8.11291 13.4911 7.89475 13.4013 7.62708 13.4013H7.07158V15.3483H7.62708ZM12.3186 13.4013H10.9381V14.0283H12.2911V14.9798H10.9381V16.2998H9.95362V12.4498H12.3186V13.4013Z" fill="white"/>
</svg>
